<?xml version="1.0" encoding="UTF-8"?><svg id="b" xmlns="http://www.w3.org/2000/svg" viewBox="0 0 250 82.9"><g id="c"><path d="m38.35,0C17.21,0,0,17.21,0,38.35s17.21,38.35,38.35,38.35,38.35-17.21,38.35-38.35S59.49,0,38.35,0Zm0,69.81c-17.38,0-31.46-14.09-31.46-31.46S20.97,6.89,38.35,6.89s31.46,14.09,31.46,31.46-14.09,31.46-31.46,31.46Z" fill="#1c75bc" stroke-width="0"/><path d="m76.7,38.35c0,21.14-17.21,38.35-38.35,38.35v-6.89c17.38,0,31.46-14.09,31.46-31.46h6.89Z" fill="#f26530" stroke-width="0"/><path d="m34.03,47.49l-.32.81c.11.04.21.08.32.12l.6-1.64c-.09-.03-.18-.07-.27-.11h0c-1.67-.67-2.51-1.55-2.51-2.63,0-2.08,2.54-2.56,4.68-2.59l-.03-1.74c-4.07.06-6.4,1.64-6.4,4.33,0,1.27.63,3.05,3.61,4.24l.32-.81Z" fill="#3ab54b" stroke-width="0"/><path d="m41.03,58.89c.39.5.58,1.16.56,1.96l1.74.03c.02-1.22-.29-2.25-.93-3.07l-1.37,1.08Z" fill="#3ab54b" stroke-width="0"/><path d="m62.07,25.61c-.09-.43-.49-1.46-2.12-1.73-4.19-.68-5.84-1.51-7.3-2.25-1.21-.61-2.34-1.18-4.52-1.57-2.64-.47-4.29.86-5.35,4.33-.55,1.78-1.82,2.16-3.47,2.25v-2.23c1.29-.38,2.23-1.57,2.23-2.98,0-1.71-1.39-3.1-3.1-3.1s-3.1,1.39-3.1,3.1c0,1.41.94,2.6,2.23,2.98v2.23c-1.65-.09-2.92-.48-3.47-2.25-1.06-3.47-2.72-4.8-5.35-4.33-2.18.39-3.32.96-4.52,1.57-1.46.73-3.11,1.56-7.3,2.25-1.63.27-2.03,1.3-2.12,1.73-.28,1.26.59,2.78,2.21,3.88,1.55,1.05,3.85,1.69,6.34,1.01-.4,1.03-.4,1.87.02,2.51.81,1.24,2.74,1.1,4.48.72.06.72.31,1.58,1.06,2.12.91.67,2.2.65,3.91-.08.24.72.71,1.58,1.63,2.03.87.43,1.92.37,3.12-.16v10.1c-.52.11-1.25.31-1.98.63-2.5,1.1-3.02,2.75-3.02,3.94,0,1.55.62,2.87,1.79,3.82l1.1-1.35c-.78-.63-1.15-1.44-1.15-2.47,0-1.69,2.01-2.47,3.26-2.78v6.54c-.78.15-1.93.51-2.81,1.42-.83.86-1.24,2-1.22,3.39l1.74-.03c-.03-1.28.45-2.16,1.46-2.68.28-.15.57-.24.82-.31v3.01h1.74v-3.27c2.07-.42,5-1.87,5-5.28,0-1.11-.47-2.12-1.36-2.91-.09-.08-.19-.16-.29-.24l-1.06,1.38c.07.05.13.1.19.16.52.46.77.98.77,1.6,0,2.3-2.02,3.17-3.26,3.48v-6.54c2.1-.27,7.47-1.35,7.47-5.2,0-2.71-2.36-4.29-6.48-4.33l-.02,1.74c2.17.02,4.76.49,4.76,2.59,0,2.32-3.9,3.17-5.73,3.44v-9.85c.67.3,1.29.45,1.86.45.45,0,.87-.09,1.26-.28.92-.45,1.39-1.31,1.63-2.03,1.72.73,3,.75,3.91.08.74-.55.99-1.4,1.06-2.12,1.74.39,3.67.52,4.48-.72.42-.64.42-1.48.02-2.51,2.49.68,4.79.03,6.34-1.01,1.62-1.1,2.49-2.62,2.21-3.88Zm-25-4.16c0-.75.61-1.36,1.36-1.36s1.36.61,1.36,1.36-.61,1.36-1.36,1.36-1.36-.61-1.36-1.36Zm-1.86,14.79c-.66-.32-.88-1.4-.91-1.79-.02-.29-.19-.56-.45-.7-.26-.14-.57-.15-.83,0-2.19,1.16-2.92.84-3.09.71-.42-.31-.4-1.28-.33-1.69.06-.3-.05-.6-.27-.8-.22-.2-.53-.28-.82-.2-3.2.9-3.69.31-3.69.3-.23-.36.47-1.84,1.41-2.99.28-.33.26-.82-.03-1.14-.29-.32-.78-.38-1.13-.13-3.46,2.35-6.3.79-7.09.25-1.15-.78-1.57-1.69-1.49-2.06.05-.24.46-.35.7-.38,4.45-.73,6.23-1.62,7.8-2.41,1.14-.57,2.12-1.06,4.05-1.41.91-.16,2.29-.41,3.38,3.13.91,2.96,3.29,3.41,5.13,3.49v7.27c-1.02.61-1.84.81-2.35.57Zm23.66-8.19c-.79.53-3.63,2.1-7.09-.25-.36-.24-.84-.19-1.13.13-.29.32-.3.81-.03,1.14.93,1.13,1.64,2.64,1.41,2.99,0,0-.5.6-3.69-.3-.29-.08-.6,0-.82.2-.22.2-.32.51-.27.8.08.42.1,1.39-.32,1.7-.17.13-.9.44-3.09-.71-.26-.14-.57-.13-.83,0-.26.14-.43.41-.45.7-.03.39-.25,1.47-.91,1.79-.51.25-1.33.04-2.35-.57v-7.27c1.83-.08,4.22-.53,5.13-3.49,1.09-3.54,2.47-3.29,3.38-3.13,1.93.34,2.91.84,4.05,1.41,1.57.79,3.35,1.68,7.8,2.41.24.04.65.14.7.38.08.37-.34,1.28-1.49,2.06Z" fill="#3ab54b" stroke-width="0"/><path d="m96.8,10.67c6.29,0,11.04,4.78,11.04,10.89s-4.75,11.19-11.04,11.19-11.04-4.9-11.04-11.19,4.75-10.89,11.04-10.89Zm0,18.53c3.91,0,7.04-3.25,7.04-7.64s-3.13-7.34-7.04-7.34-7.04,3.13-7.04,7.34,3.13,7.64,7.04,7.64Z" fill="#f26530" stroke-width="0"/><path d="m111.18,11.03h3.82v6.59c0,.75-.06,1.29-.06,1.29h.06s1.35-2.23,4.6-2.23c4.15,0,6.8,3.28,6.8,8.03s-2.98,8.03-7.04,8.03c-3.19,0-4.57-2.29-4.57-2.29h-.06s.06.45.06,1.05v.87h-3.61V11.03Zm7.52,18.5c2.11,0,3.85-1.71,3.85-4.75s-1.56-4.81-3.82-4.81c-1.99,0-3.85,1.44-3.85,4.84,0,2.38,1.26,4.72,3.82,4.72Z" fill="#f26530" stroke-width="0"/><path d="m137.35,22.76h.51v-.21c0-2.02-1.26-2.71-2.95-2.71-2.2,0-4.21,1.47-4.21,1.47l-1.44-2.74s2.38-1.89,6.02-1.89c4.03,0,6.38,2.23,6.38,6.11v9.59h-3.52v-1.26c0-.6.06-1.08.06-1.08h-.06s-1.17,2.71-4.66,2.71c-2.74,0-5.2-1.71-5.2-4.78,0-4.87,6.59-5.2,9.08-5.2Zm-2.92,7.01c2.02,0,3.46-2.17,3.46-4.03v-.36h-.66c-1.96,0-5.11.27-5.11,2.41,0,1.02.75,1.99,2.32,1.99Z" fill="#f26530" stroke-width="0"/><path d="m145.62,17.05h3.67v1.77c0,.57-.06,1.05-.06,1.05h.06c.75-1.5,2.59-3.19,4.99-3.19s3.85,1.08,4.48,3.16h.06c.84-1.65,2.83-3.16,5.23-3.16,3.19,0,5.02,1.8,5.02,5.84v9.87h-3.82v-9.14c0-1.74-.33-3.07-2.11-3.07-1.96,0-3.25,1.56-3.7,3.49-.15.6-.18,1.26-.18,1.99v6.74h-3.82v-9.14c0-1.65-.27-3.07-2.08-3.07-1.99,0-3.28,1.56-3.76,3.52-.15.57-.18,1.26-.18,1.96v6.74h-3.82v-15.34Z" fill="#f26530" stroke-width="0"/><path d="m180.87,22.76h.51v-.21c0-2.02-1.26-2.71-2.95-2.71-2.2,0-4.21,1.47-4.21,1.47l-1.44-2.74s2.38-1.89,6.02-1.89c4.03,0,6.38,2.23,6.38,6.11v9.59h-3.52v-1.26c0-.6.06-1.08.06-1.08h-.06s-1.17,2.71-4.66,2.71c-2.74,0-5.2-1.71-5.2-4.78,0-4.87,6.59-5.2,9.08-5.2Zm-2.92,7.01c2.02,0,3.46-2.17,3.46-4.03v-.36h-.66c-1.96,0-5.11.27-5.11,2.41,0,1.02.75,1.99,2.32,1.99Z" fill="#f26530" stroke-width="0"/><path d="m196.36,16.68c4,0,5.9,2.29,5.9,2.29l-1.68,2.62s-1.59-1.65-4-1.65c-2.83,0-4.66,2.14-4.66,4.75s1.86,4.81,4.78,4.81c2.59,0,4.51-1.96,4.51-1.96l1.47,2.71s-2.2,2.5-6.32,2.5c-5.08,0-8.33-3.58-8.33-8.03s3.25-8.03,8.33-8.03Z" fill="#f26530" stroke-width="0"/><path d="m213.33,22.76h.51v-.21c0-2.02-1.26-2.71-2.95-2.71-2.2,0-4.21,1.47-4.21,1.47l-1.44-2.74s2.38-1.89,6.02-1.89c4.03,0,6.38,2.23,6.38,6.11v9.59h-3.52v-1.26c0-.6.06-1.08.06-1.08h-.06s-1.17,2.71-4.66,2.71c-2.74,0-5.2-1.71-5.2-4.78,0-4.87,6.59-5.2,9.08-5.2Zm-2.92,7.01c2.02,0,3.46-2.17,3.46-4.03v-.36h-.66c-1.96,0-5.11.27-5.11,2.41,0,1.02.75,1.99,2.32,1.99Z" fill="#f26530" stroke-width="0"/><path d="m221.6,17.05h3.67v2.65c0,.57-.06,1.08-.06,1.08h.06c.69-2.2,2.53-3.94,4.87-3.94.36,0,.69.06.69.06v3.76s-.39-.06-.9-.06c-1.62,0-3.46.93-4.18,3.22-.24.75-.33,1.59-.33,2.5v6.08h-3.82v-15.34Z" fill="#f26530" stroke-width="0"/><path d="m240.13,16.68c4.42,0,6.8,3.22,6.8,7.28,0,.45-.09,1.47-.09,1.47h-10.59c.24,2.68,2.32,4.06,4.6,4.06,2.47,0,4.42-1.68,4.42-1.68l1.47,2.74s-2.35,2.2-6.17,2.2c-5.08,0-8.24-3.67-8.24-8.03,0-4.72,3.22-8.03,7.79-8.03Zm2.95,6.14c-.06-2.08-1.35-3.19-3.04-3.19-1.96,0-3.31,1.2-3.67,3.19h6.71Z" fill="#f26530" stroke-width="0"/><path d="m86.91,45.43h3.94v1.26c0,.65-.07,1.19-.07,1.19h.07s1.49-2.85,5.57-2.85c4.69,0,7.67,3.7,7.67,9.07s-3.36,9.07-7.91,9.07c-3.43,0-4.96-2.38-4.96-2.38h-.07s.07.61.07,1.49v7.27h-4.31v-24.11Zm8.49,14.09c2.38,0,4.35-1.94,4.35-5.37s-1.77-5.43-4.31-5.43c-2.24,0-4.35,1.63-4.35,5.47,0,2.68,1.46,5.33,4.31,5.33Z" fill="#1c75bc" stroke-width="0"/><path d="m108.77,38.64h4.28v18.07c0,1.9.65,2.38,1.77,2.38.34,0,.65-.03.65-.03v3.77s-.65.1-1.36.1c-2.38,0-5.33-.61-5.33-5.57v-18.71Z" fill="#1c75bc" stroke-width="0"/><path d="m128.81,51.88h.58v-.24c0-2.28-1.43-3.06-3.33-3.06-2.48,0-4.75,1.66-4.75,1.66l-1.63-3.09s2.68-2.14,6.79-2.14c4.55,0,7.2,2.51,7.2,6.89v10.83h-3.97v-1.43c0-.68.07-1.22.07-1.22h-.07s-1.32,3.06-5.26,3.06c-3.09,0-5.87-1.94-5.87-5.4,0-5.5,7.44-5.87,10.26-5.87Zm-3.29,7.91c2.28,0,3.91-2.45,3.91-4.55v-.41h-.75c-2.21,0-5.77.31-5.77,2.72,0,1.15.85,2.24,2.61,2.24Z" fill="#1c75bc" stroke-width="0"/><path d="m139.51,45.43h4.14v2c0,.65-.07,1.19-.07,1.19h.07c.75-1.46,2.65-3.6,6.15-3.6,3.84,0,6.01,2,6.01,6.59v11.14h-4.28v-10.26c0-2.11-.54-3.53-2.75-3.53s-4.01,1.46-4.65,3.53c-.24.71-.31,1.49-.31,2.31v7.95h-4.31v-17.32Z" fill="#1c75bc" stroke-width="0"/><path d="m162.19,57.59s1.9,1.9,4.72,1.9c1.22,0,2.28-.54,2.28-1.56,0-2.58-8.42-2.24-8.42-7.81,0-3.23,2.89-5.09,6.62-5.09s5.81,1.97,5.81,1.97l-1.6,3.19s-1.6-1.49-4.24-1.49c-1.12,0-2.21.48-2.21,1.56,0,2.45,8.42,2.14,8.42,7.71,0,2.89-2.51,5.2-6.62,5.2-4.31,0-6.72-2.55-6.72-2.55l1.97-3.02Z" fill="#1c75bc" stroke-width="0"/><path d="m178.86,60.03h2.68v2.72h-2.68v-2.72Z" fill="#1c75bc" stroke-width="0"/><path d="m196.31,45.26c4.18,0,6.25,2.45,6.25,2.45l-1.19,1.73s-1.9-2.07-4.99-2.07c-3.74,0-6.66,2.78-6.66,6.86s2.95,6.86,6.72,6.86c3.46,0,5.47-2.41,5.47-2.41l1.05,1.8s-2.31,2.68-6.66,2.68c-5.06,0-8.96-3.63-8.96-8.93s3.94-8.96,8.96-8.96Z" fill="#1c75bc" stroke-width="0"/><path d="m212.92,45.26c4.99,0,9.03,3.8,9.03,8.86s-4.04,9.03-9.03,9.03-9.03-3.87-9.03-9.03,4.04-8.86,9.03-8.86Zm0,15.82c3.67,0,6.66-2.99,6.66-6.96s-2.99-6.76-6.66-6.76-6.66,2.89-6.66,6.76,2.99,6.96,6.66,6.96Z" fill="#1c75bc" stroke-width="0"/><path d="m224.23,45.67h2.28v2.55c0,.75-.07,1.36-.07,1.36h.07c.81-2.31,3.53-4.31,6.18-4.31,3.16,0,4.79,1.46,5.3,4.28h.07c.92-2.31,3.4-4.28,6.28-4.28,4.14,0,5.67,2.41,5.67,6.62v10.87h-2.31v-10.29c0-2.78-.58-5.09-3.7-5.09-2.61,0-4.75,2.31-5.4,4.82-.24.75-.31,1.56-.31,2.48v8.08h-2.31v-10.29c0-2.58-.37-5.09-3.6-5.09-2.78,0-4.89,2.41-5.6,5.03-.17.71-.24,1.49-.24,2.28v8.08h-2.31v-17.08Z" fill="#1c75bc" stroke-width="0"/><path d="m143.68,72.24c.46,0,.85.05,1.19.16.34.11.61.26.83.46.22.2.38.44.49.72.11.28.16.59.16.94,0,.45-.07.87-.22,1.24-.15.38-.36.7-.65.98-.28.27-.63.49-1.04.64s-.89.23-1.42.23h-1.25l-.4,3.23h-1.12l1.05-8.6h2.37Zm-.55,4.48c.34,0,.64-.05.9-.16s.48-.25.65-.44c.18-.19.31-.41.4-.67.09-.26.14-.54.14-.84,0-.23-.03-.44-.1-.62-.07-.18-.17-.34-.31-.47-.14-.13-.31-.23-.52-.3-.21-.07-.45-.1-.73-.1h-1.25l-.44,3.6h1.25Z" fill="#666" stroke-width="0"/><path d="m148.78,80.92c-.33,0-.64-.06-.91-.17-.28-.11-.51-.28-.71-.5-.2-.22-.36-.48-.47-.79s-.17-.67-.17-1.07c0-.51.08-.99.24-1.45.16-.45.38-.85.66-1.19.28-.34.61-.6.99-.8.38-.2.78-.29,1.22-.29.33,0,.64.06.91.17.28.11.51.28.71.5s.36.48.47.79c.11.31.17.67.17,1.06,0,.51-.08.99-.24,1.44s-.38.85-.66,1.19c-.28.34-.61.61-.99.81-.38.2-.79.3-1.22.3Zm.1-.83c.29,0,.56-.08.8-.24.24-.16.44-.37.61-.64s.3-.57.39-.92c.09-.35.14-.71.14-1.09,0-.56-.11-.98-.33-1.26-.22-.28-.54-.42-.96-.42-.3,0-.56.08-.8.24-.24.16-.44.37-.61.63s-.3.57-.39.92c-.09.35-.14.71-.14,1.09,0,.56.11.98.33,1.27.22.29.54.43.96.43Z" fill="#666" stroke-width="0"/><path d="m161.12,74.76l-2.55,6.08h-.81c-.1,0-.16-.07-.18-.2l-.74-4.12c0-.07-.02-.13-.02-.19s-.01-.13-.02-.19c-.04.13-.09.26-.14.4l-1.75,4.12c-.06.14-.14.2-.25.2h-.78l-1.07-6.08h.8c.08,0,.14.02.19.06s.08.09.1.16l.56,3.91c0,.14.02.28.02.41,0,.13.01.26.02.39.04-.13.09-.26.14-.39.05-.13.11-.27.16-.41l1.66-3.94c.02-.06.06-.11.11-.15.06-.04.12-.06.19-.06h.44c.08,0,.14.02.18.06s.07.09.08.15l.68,3.94c.02.14.04.27.05.4.02.13.03.26.04.39.04-.13.08-.26.12-.39.04-.13.09-.27.13-.41l1.54-3.91c.02-.06.06-.12.12-.16s.12-.06.19-.06h.77Z" fill="#666" stroke-width="0"/><path d="m166.11,79.72c-.2.21-.4.39-.6.54-.2.15-.4.28-.6.38-.2.1-.41.17-.64.22-.22.05-.46.07-.72.07-.35,0-.66-.06-.94-.17-.28-.12-.51-.28-.7-.5-.19-.21-.34-.47-.44-.78-.1-.3-.16-.64-.16-1.02,0-.31.03-.62.1-.93.07-.31.16-.6.29-.89.13-.28.28-.54.46-.78.18-.24.39-.45.62-.62.23-.17.49-.31.77-.41.28-.1.58-.15.91-.15s.57.04.8.13c.22.09.41.2.55.34.14.14.25.29.32.45.07.16.1.32.1.47,0,.26-.05.51-.16.73-.11.22-.31.42-.59.6-.29.18-.68.33-1.19.46s-1.15.24-1.94.32c0,.04,0,.09,0,.13,0,.04,0,.08,0,.13,0,.54.12.94.35,1.23.23.28.59.42,1.06.42.19,0,.36-.02.51-.06s.28-.09.4-.15.22-.12.31-.19c.09-.07.17-.13.25-.19.07-.06.14-.11.21-.15s.13-.06.19-.06c.08,0,.14.03.2.1l.26.33Zm-1.69-4.27c-.25,0-.48.05-.7.16s-.4.25-.56.43-.3.4-.42.64c-.12.25-.21.51-.27.79.62-.08,1.11-.16,1.48-.26.37-.1.66-.2.86-.32.2-.11.33-.24.4-.37.06-.13.1-.27.1-.41,0-.07-.02-.15-.05-.23-.03-.08-.08-.15-.15-.21s-.16-.12-.27-.16c-.11-.04-.25-.06-.41-.06Z" fill="#666" stroke-width="0"/><path d="m168.63,76.45c.16-.34.33-.63.52-.88s.38-.45.58-.59.41-.23.63-.26c.22-.03.44,0,.66.1l-.19,1.03c-.52-.21-.98-.13-1.38.23-.4.36-.72,1.01-.97,1.95l-.34,2.81h-1.04l.73-6.08h.53c.24,0,.37.12.37.36l-.1,1.34Z" fill="#666" stroke-width="0"/><path d="m175.8,79.72c-.2.21-.4.39-.6.54-.2.15-.4.28-.6.38-.2.1-.41.17-.64.22-.22.05-.46.07-.72.07-.35,0-.66-.06-.94-.17-.28-.12-.51-.28-.7-.5-.19-.21-.34-.47-.44-.78-.1-.3-.16-.64-.16-1.02,0-.31.03-.62.1-.93.07-.31.16-.6.29-.89.13-.28.28-.54.46-.78.18-.24.39-.45.62-.62.23-.17.49-.31.77-.41.28-.1.58-.15.91-.15s.57.04.8.13c.22.09.41.2.55.34.14.14.25.29.32.45.07.16.1.32.1.47,0,.26-.05.51-.16.73-.11.22-.31.42-.59.6-.29.18-.68.33-1.19.46s-1.15.24-1.94.32c0,.04,0,.09,0,.13,0,.04,0,.08,0,.13,0,.54.12.94.35,1.23.23.28.59.42,1.06.42.19,0,.36-.02.51-.06s.28-.09.4-.15.22-.12.31-.19c.09-.07.17-.13.25-.19.07-.06.14-.11.21-.15s.13-.06.19-.06c.08,0,.14.03.2.1l.26.33Zm-1.69-4.27c-.25,0-.48.05-.7.16s-.4.25-.56.43-.3.4-.42.64c-.12.25-.21.51-.27.79.62-.08,1.11-.16,1.48-.26.37-.1.66-.2.86-.32.2-.11.33-.24.4-.37.06-.13.1-.27.1-.41,0-.07-.02-.15-.05-.23-.03-.08-.08-.15-.15-.21s-.16-.12-.27-.16c-.11-.04-.25-.06-.41-.06Z" fill="#666" stroke-width="0"/><path d="m182.64,72l-1.09,8.84h-.56c-.14,0-.23-.04-.28-.11-.05-.07-.07-.16-.07-.26l.11-1.28c-.15.26-.32.5-.5.71s-.37.39-.57.55c-.2.15-.4.27-.62.35s-.43.12-.65.12c-.52,0-.92-.19-1.21-.57-.29-.38-.43-.93-.43-1.65,0-.33.03-.66.1-.98.07-.33.17-.64.29-.94.13-.3.28-.58.46-.84.18-.26.38-.48.6-.67.22-.19.46-.34.71-.44.25-.11.52-.16.8-.16.3,0,.57.06.82.18.25.12.46.29.63.5l.41-3.35h1.04Zm-1.55,4.09c-.15-.22-.33-.37-.55-.45-.21-.09-.43-.13-.65-.13-.32,0-.6.09-.85.28-.25.19-.47.43-.65.73-.18.3-.31.63-.41,1-.1.37-.14.73-.14,1.09,0,.48.08.84.25,1.09s.41.38.73.38c.19,0,.39-.06.58-.18s.38-.29.57-.5.35-.47.51-.76c.16-.29.29-.61.41-.96l.2-1.58Z" fill="#666" stroke-width="0"/><path d="m187.61,76.3c.15-.25.31-.47.49-.67.17-.2.36-.37.55-.51.19-.14.39-.25.6-.33.21-.08.42-.12.64-.12.52,0,.92.19,1.21.56.29.38.43.93.43,1.65,0,.33-.03.66-.1.98-.07.33-.16.64-.29.94-.13.3-.28.58-.46.83-.18.26-.38.48-.59.67-.22.19-.46.34-.71.45s-.52.16-.8.16c-.32,0-.62-.07-.88-.2-.26-.14-.48-.33-.65-.58l-.08.39c-.03.1-.07.18-.12.23-.05.05-.13.08-.26.08h-.56l1.07-8.84h1.04l-.52,4.3Zm-.39,3.2c.15.21.33.36.55.45.21.09.43.13.65.13s.4-.04.59-.13.35-.21.5-.36c.15-.15.29-.33.41-.53.12-.2.22-.42.3-.65.08-.23.15-.47.19-.71s.06-.49.06-.73c0-.48-.08-.84-.25-1.09s-.41-.37-.72-.37c-.19,0-.39.06-.58.18-.2.12-.39.29-.57.5s-.35.47-.51.76c-.16.29-.3.62-.41.96l-.19,1.57Z" fill="#666" stroke-width="0"/><path d="m197.86,74.76l-4.1,7.89c-.04.08-.1.15-.15.19-.06.04-.13.06-.22.06h-.79l1.32-2.42-1.58-5.72h.88c.09,0,.15.02.19.06s.07.1.09.16l.98,3.83c.02.08.04.17.05.25.01.08.02.17.03.25.04-.08.07-.17.11-.25.04-.09.07-.17.11-.26l1.92-3.83c.03-.06.08-.11.14-.15.06-.04.12-.06.18-.06h.85Z" fill="#666" stroke-width="0"/><path d="m205.66,80.72c-.43.14-.89.21-1.37.21-.53,0-1-.09-1.43-.28s-.78-.45-1.08-.78c-.3-.33-.53-.73-.68-1.19-.16-.46-.24-.96-.24-1.51,0-.73.11-1.4.34-2.02.23-.61.54-1.14.95-1.59.4-.44.88-.79,1.43-1.04.55-.25,1.15-.37,1.79-.37.53,0,1,.09,1.42.28.42.19.78.45,1.08.79s.52.74.68,1.2c.16.46.24.97.24,1.51,0,.48-.05.94-.15,1.37-.1.43-.25.83-.43,1.2s-.41.7-.68,1-.57.55-.89.76l1.74,2.36h-.91c-.14,0-.26-.02-.36-.06-.1-.04-.19-.11-.27-.2l-1.18-1.64Zm-3.64-3.59c0,.44.05.83.16,1.18.11.35.27.65.48.9s.46.44.76.57c.3.13.63.2,1,.2.48,0,.91-.09,1.31-.28.4-.19.74-.46,1.02-.81.28-.35.51-.77.66-1.27.16-.5.24-1.06.24-1.67,0-.44-.06-.83-.17-1.19-.11-.35-.27-.66-.48-.9-.21-.25-.46-.44-.76-.58-.3-.14-.63-.2-1-.2-.47,0-.9.1-1.3.29s-.73.46-1.02.81c-.29.35-.51.78-.67,1.27-.16.5-.24,1.06-.24,1.67Z" fill="#666" stroke-width="0"/><path d="m215.06,74.76l-.73,6.08h-.53c-.26,0-.39-.13-.39-.38l.09-1.11c-.32.52-.68.91-1.08,1.18s-.81.4-1.24.4c-.26,0-.48-.05-.68-.15-.2-.1-.35-.25-.48-.45-.12-.2-.21-.44-.25-.72-.04-.28-.04-.61,0-.98l.46-3.86h1.06l-.46,3.86c-.06.48-.03.83.09,1.06.11.23.33.35.64.35.18,0,.37-.05.57-.15.2-.1.38-.24.56-.43s.35-.41.51-.67c.16-.26.29-.55.41-.87l.38-3.16h1.06Z" fill="#666" stroke-width="0"/><path d="m218.21,80.92c-.33,0-.64-.06-.91-.17-.28-.11-.51-.28-.71-.5-.2-.22-.36-.48-.47-.79s-.17-.67-.17-1.07c0-.51.08-.99.24-1.45.16-.45.38-.85.66-1.19.28-.34.61-.6.99-.8.38-.2.78-.29,1.22-.29.33,0,.64.06.91.17.28.11.51.28.71.5s.36.48.47.79c.11.31.17.67.17,1.06,0,.51-.08.99-.24,1.44s-.38.85-.66,1.19c-.28.34-.61.61-.99.81-.38.2-.79.3-1.22.3Zm.1-.83c.29,0,.56-.08.8-.24.24-.16.44-.37.61-.64s.3-.57.39-.92c.09-.35.14-.71.14-1.09,0-.56-.11-.98-.33-1.26-.22-.28-.54-.42-.96-.42-.3,0-.56.08-.8.24-.24.16-.44.37-.61.63s-.3.57-.39.92c-.09.35-.14.71-.14,1.09,0,.56.11.98.33,1.27.22.29.54.43.96.43Z" fill="#666" stroke-width="0"/><path d="m222.59,79.69v-.09s0-.09,0-.17c0-.07.02-.17.03-.28.01-.12.03-.27.06-.46l.37-3.04h-.68c-.06,0-.1-.02-.14-.06-.03-.04-.05-.1-.04-.18l.05-.43.94-.13.46-1.88c.02-.06.05-.11.09-.15s.1-.06.16-.06h.56l-.26,2.09h1.6l-.09.77h-1.6l-.37,2.99c-.02.16-.04.3-.05.4-.01.1-.02.18-.03.24,0,.06,0,.1-.01.13s0,.04,0,.05c0,.2.05.35.14.45.1.1.22.15.38.15.11,0,.2-.02.28-.05.08-.03.15-.06.21-.1.06-.04.11-.07.15-.1.04-.03.07-.04.1-.04.04,0,.06,0,.08.02.02.02.04.04.05.08l.23.51c-.2.17-.42.31-.67.41-.25.1-.5.15-.75.15-.39,0-.69-.11-.92-.32-.22-.21-.34-.52-.35-.92Z" fill="#666" stroke-width="0"/><path d="m231.05,79.72c-.2.21-.4.39-.6.54-.2.15-.4.28-.6.38-.2.1-.41.17-.64.22-.22.05-.46.07-.72.07-.35,0-.66-.06-.94-.17-.28-.12-.51-.28-.7-.5-.19-.21-.34-.47-.44-.78-.1-.3-.16-.64-.16-1.02,0-.31.03-.62.1-.93.07-.31.16-.6.29-.89.13-.28.28-.54.46-.78.18-.24.39-.45.62-.62.23-.17.49-.31.77-.41.28-.1.58-.15.91-.15s.57.04.8.13c.22.09.41.2.55.34.14.14.25.29.32.45.07.16.1.32.1.47,0,.26-.05.51-.16.73-.11.22-.31.42-.59.6-.29.18-.68.33-1.19.46s-1.15.24-1.94.32c0,.04,0,.09,0,.13,0,.04,0,.08,0,.13,0,.54.12.94.35,1.23.23.28.59.42,1.06.42.19,0,.36-.02.51-.06s.28-.09.4-.15.22-.12.31-.19c.09-.07.17-.13.25-.19.07-.06.14-.11.21-.15s.13-.06.19-.06c.08,0,.14.03.2.1l.26.33Zm-1.69-4.27c-.25,0-.48.05-.7.16s-.4.25-.56.43-.3.4-.42.64c-.12.25-.21.51-.27.79.62-.08,1.11-.16,1.48-.26.37-.1.66-.2.86-.32.2-.11.33-.24.4-.37.06-.13.1-.27.1-.41,0-.07-.02-.15-.05-.23-.03-.08-.08-.15-.15-.21s-.16-.12-.27-.16c-.11-.04-.25-.06-.41-.06Z" fill="#666" stroke-width="0"/><path d="m236.76,79.89l-.11.95h-4.52l1.06-8.6h1.12l-.94,7.65h3.4Z" fill="#666" stroke-width="0"/><path d="m241.18,79.24c-.14.26-.3.49-.46.7s-.34.38-.53.53-.38.26-.59.34-.42.12-.64.12c-.24,0-.46-.05-.65-.14-.2-.09-.36-.23-.5-.41-.14-.18-.25-.41-.32-.67-.08-.27-.11-.57-.11-.92s.05-.71.14-1.05c.09-.34.22-.67.38-.97.17-.3.37-.58.6-.84s.49-.47.78-.66.59-.33.92-.43c.33-.1.67-.15,1.03-.15.26,0,.51.02.76.06.25.04.49.12.73.22l-.73,5.88h-.55c-.14,0-.23-.04-.29-.11-.05-.07-.07-.16-.07-.26l.11-1.23Zm.41-3.73c-.09-.02-.18-.03-.26-.04s-.17,0-.25,0c-.24,0-.47.04-.7.12-.22.08-.43.19-.63.33-.2.14-.37.31-.53.5-.16.19-.3.41-.41.64-.11.23-.2.48-.27.74-.06.26-.1.53-.1.81,0,.96.31,1.45.92,1.45.2,0,.39-.06.58-.18s.37-.29.54-.51c.17-.22.33-.48.47-.77s.27-.62.38-.98l.26-2.08Z" fill="#666" stroke-width="0"/><path d="m245.18,76.3c.15-.25.31-.47.49-.67.17-.2.36-.37.55-.51.19-.14.39-.25.6-.33.21-.08.42-.12.64-.12.52,0,.92.19,1.21.56.29.38.43.93.43,1.65,0,.33-.03.66-.1.98-.07.33-.16.64-.29.94-.13.3-.28.58-.46.83-.18.26-.38.48-.59.67-.22.19-.46.34-.71.45s-.52.16-.8.16c-.32,0-.62-.07-.88-.2-.26-.14-.48-.33-.65-.58l-.08.39c-.03.1-.07.18-.12.23-.05.05-.13.08-.26.08h-.56l1.07-8.84h1.04l-.52,4.3Zm-.39,3.2c.15.21.33.36.55.45.21.09.43.13.65.13s.4-.04.59-.13.35-.21.5-.36c.15-.15.29-.33.41-.53.12-.2.22-.42.3-.65.08-.23.15-.47.19-.71s.06-.49.06-.73c0-.48-.08-.84-.25-1.09s-.41-.37-.72-.37c-.19,0-.39.06-.58.18-.2.12-.39.29-.57.5s-.35.47-.51.76c-.16.29-.3.62-.41.96l-.19,1.57Z" fill="#666" stroke-width="0"/></g></svg>